<?xml version="1.0" encoding="iso-8859-1"?>
<!-- Uploaded to: SVG Repo, www.svgrepo.com, Generator: SVG Repo Mixer Tools -->
<svg height="800px" width="800px" version="1.1" id="Layer_1" xmlns="http://www.w3.org/2000/svg" xmlns:xlink="http://www.w3.org/1999/xlink" 
	 viewBox="0 0 512 512" xml:space="preserve">
<g>
	<g>
		<path style="fill:#7D6599;" d="M147.525,73.763h-86.78V13.017c0-4.799,3.888-8.678,8.678-8.678h69.424
			c4.79,0,8.678,3.879,8.678,8.678V73.763z"/>
		<path style="fill:#7D6599;" d="M182.237,334.102H26.034c-4.79,0-8.678-3.879-8.678-8.678V134.508c0-4.799,3.888-8.678,8.678-8.678
			h156.203c4.79,0,8.678,3.879,8.678,8.678v190.915C190.915,330.223,187.028,334.102,182.237,334.102"/>
	</g>
	<g>
		<path style="fill:#584870;" d="M130.169,403.525H78.102c-4.79,0-8.678-3.879-8.678-8.678v-60.746h69.424v60.746
			C138.847,399.646,134.96,403.525,130.169,403.525"/>
		<path style="fill:#584870;" d="M164.881,125.831H43.39v-43.39c0-4.799,3.888-8.678,8.678-8.678h104.136
			c4.79,0,8.678,3.879,8.678,8.678V125.831z"/>
		<path style="fill:#584870;" d="M199.593,273.356H8.678c-4.79,0-8.678-3.879-8.678-8.678C0,259.879,3.888,256,8.678,256h190.915
			c4.79,0,8.678,3.879,8.678,8.678C208.271,269.477,204.383,273.356,199.593,273.356"/>
		<path style="fill:#584870;" d="M199.593,308.068H8.678c-4.79,0-8.678-3.879-8.678-8.678c0-4.799,3.888-8.678,8.678-8.678h190.915
			c4.79,0,8.678,3.879,8.678,8.678C208.271,304.189,204.383,308.068,199.593,308.068"/>
	</g>
	<path style="fill:#7D6599;" d="M147.525,377.492h-86.78c-4.79,0-8.678-3.879-8.678-8.678c0-4.799,3.888-8.678,8.678-8.678h86.78
		c4.79,0,8.678,3.879,8.678,8.678C156.203,373.612,152.316,377.492,147.525,377.492"/>
	<path style="fill:#546A79;" d="M433.898,403.525h-52.068c-4.79,0-8.678-3.879-8.678-8.678v-60.746h69.424v60.746
		C442.576,399.646,438.689,403.525,433.898,403.525"/>
	<path style="fill:#38454F;" d="M451.254,377.492h-86.78c-4.79,0-8.678-3.879-8.678-8.678c0-4.799,3.888-8.678,8.678-8.678h86.78
		c4.79,0,8.678,3.879,8.678,8.678C459.932,373.612,456.044,377.492,451.254,377.492"/>
	<polygon style="fill:#DBB780;" points="321.085,143.19 494.644,143.19 494.644,4.342 321.085,4.342 	"/>
	<path style="fill:#38454F;" d="M503.322,334.102H312.407c-4.79,0-8.678-3.879-8.678-8.678V151.864c0-4.799,3.888-8.678,8.678-8.678
		h190.915c4.79,0,8.678,3.879,8.678,8.678v173.559C512,330.223,508.112,334.102,503.322,334.102"/>
	<g>
		<polygon style="fill:#F4E197;" points="355.797,91.122 390.508,91.122 390.508,56.41 355.797,56.41 		"/>
		<polygon style="fill:#F4E197;" points="425.22,91.122 459.932,91.122 459.932,56.41 425.22,56.41 		"/>
	</g>
	<path style="fill:#D4DBDF;" d="M390.508,403.525v8.678c0,33.488-27.249,60.746-60.746,60.746H182.237
		c-33.497,0-60.746-27.258-60.746-60.746v-8.678H86.78v8.678c0,52.632,42.826,95.458,95.458,95.458h147.525
		c52.632,0,95.458-42.826,95.458-95.458v-8.678H390.508z"/>
</g>
</svg>